/* XPM */
static char * close_pressed_xpm[] = {
"15 25 25 1",
" 	c None",
".	c #F8F8F8",
"+	c #F7F4F4",
"@	c #F3CCCB",
"#	c #F0AAA8",
"$	c #EFA09E",
"%	c #F0AAA9",
"&	c #F7F3F3",
"*	c #F1B3B2",
"=	c #F1A3A1",
"-	c #F5AAA8",
";	c #F7ADAA",
">	c #F1A2A0",
",	c #F1B5B4",
"'	c #F7F0F0",
")	c #F3A4A2",
"!	c #F2C4C3",
"~	c #F7ABA9",
"{	c #F0ABAA",
"]	c #F7ACA9",
"^	c #F0ABA9",
"/	c #F2A4A2",
"(	c #F2C5C4",
"_	c #F1BAB9",
":	c #F6ECEB",
"...............",
"...............",
"...............",
"...............",
"...............",
"...............",
"...............",
"...............",
"....+@#$%@&....",
"...+*=-;->,'...",
"...@=;;;;;)!...",
"...#-;;;;;~{...",
"...$;;;;;;;$...",
"...%-;;;;;]^...",
"...@>;;;;;/(...",
"...&,)~;]/_:...",
"....'!{$^(:....",
"...............",
"...............",
"...............",
"...............",
"...............",
"...............",
"...............",
"..............."};
