/* XPM */
static char * hide_inactive_xpm[] = {
"15 25 23 1",
" 	c None",
".	c #F8F8F8",
"+	c #F7F6F4",
"@	c #F4E4C6",
"#	c #F1D5A0",
"$	c #F0D095",
"%	c #F1D5A1",
"&	c #F7F5F2",
"*	c #F1D9AB",
"=	c #F3D495",
"-	c #FBDB96",
";	c #FDDE96",
">	c #F3D395",
",	c #F2DAAD",
"'	c #F7F4EF",
")	c #FDDF97",
"!	c #F5D595",
"~	c #F3E0BE",
"{	c #FBDD96",
"]	c #F1D5A2",
"^	c #F3E1BF",
"/	c #F2DCB2",
"(	c #F6F2EA",
"...............",
"...............",
"...............",
"...............",
"...............",
"...............",
"...............",
"...............",
"....+@#$%@&....",
"...+*=-;->,'...",
"...@=)))))!~...",
"...#-))))){]...",
"...$;)))));$...",
"...%-))))){]...",
"...@>)))))!^...",
"...&,!{;{!/(...",
"....'~]$]^(....",
"...............",
"...............",
"...............",
"...............",
"...............",
"...............",
"...............",
"..............."};
