/* XPM */
static char * maximize_active_xpm[] = {
"15 25 26 1",
" 	c None",
".	c #F8F8F8",
"+	c #F4F6F4",
"@	c #D1E7C6",
"#	c #B4DA9F",
"$	c #AAD693",
"%	c #D1E7C5",
"&	c #F3F6F2",
"*	c #BCDEAA",
"=	c #ACDA96",
"-	c #AFE29D",
";	c #B0E5A0",
">	c #ACDA95",
",	c #BDDEAC",
"'	c #F1F5EF",
")	c #B1E5A0",
"!	c #ADDB97",
"~	c #CBE4BD",
"{	c #B0E39E",
"]	c #B5DAA0",
"^	c #ABD694",
"/	c #B0E39F",
"(	c #ACDB97",
"_	c #CBE4BE",
":	c #C2E0B1",
"<	c #EDF3EA",
"...............",
"...............",
"...............",
"...............",
"...............",
"...............",
"...............",
"...............",
"....+@#$#%&....",
"...+*=-;->,'...",
"...@=)))))!~...",
"...#-))))){]...",
"...$;)))));^...",
"...#-)))))/]...",
"...%>)))))(_...",
"...&,!{;/(:<...",
"....'~]^]_<....",
"...............",
"...............",
"...............",
"...............",
"...............",
"...............",
"...............",
"..............."};
