/* XPM */
static char * top_right_active_xpm[] = {
"15 26 2 1",
" 	c None",
".	c #F8F8F8",
"............   ",
".............  ",
".............  ",
".............  ",
".............  ",
".............  ",
".............  ",
".............  ",
".............  ",
".............  ",
".............  ",
".............  ",
".............  ",
".............  ",
".............  ",
".............  ",
".............  ",
".............  ",
".............  ",
".............  ",
".............  ",
".............  ",
".............  ",
".............  ",
".............  ",
".............  "};
